<mxfile host="app.diagrams.net" modified="2023-10-11T10:10:21.225Z" agent="Mozilla/5.0 (Windows NT 10.0; Win64; x64) AppleWebKit/537.36 (KHTML, like Gecko) Chrome/117.0.0.0 Safari/537.36" etag="egcnbdOYHrmOHjTf4k4N" version="22.0.4" type="device">
  <diagram name="Page-1" id="uW8DHZl0Nrr9EIgwN8-5">
    <mxGraphModel dx="876" dy="1510" grid="1" gridSize="10" guides="1" tooltips="1" connect="1" arrows="1" fold="1" page="1" pageScale="1" pageWidth="850" pageHeight="1100" math="0" shadow="0">
      <root>
        <mxCell id="0" />
        <mxCell id="1" parent="0" />
        <mxCell id="UihXmZ7Ag9q17s1g6zQK-21" value="EMPLOYEE" style="whiteSpace=wrap;html=1;align=center;" vertex="1" parent="1">
          <mxGeometry x="170" y="110" width="100" height="40" as="geometry" />
        </mxCell>
        <mxCell id="UihXmZ7Ag9q17s1g6zQK-24" value="Fname" style="ellipse;whiteSpace=wrap;html=1;align=center;" vertex="1" parent="1">
          <mxGeometry y="-80" width="100" height="40" as="geometry" />
        </mxCell>
        <mxCell id="UihXmZ7Ag9q17s1g6zQK-25" value="Bdate" style="ellipse;whiteSpace=wrap;html=1;align=center;" vertex="1" parent="1">
          <mxGeometry width="100" height="40" as="geometry" />
        </mxCell>
        <mxCell id="UihXmZ7Ag9q17s1g6zQK-26" value="Lname" style="ellipse;whiteSpace=wrap;html=1;align=center;" vertex="1" parent="1">
          <mxGeometry x="240" y="-80" width="100" height="40" as="geometry" />
        </mxCell>
        <mxCell id="UihXmZ7Ag9q17s1g6zQK-27" value="Sex" style="ellipse;whiteSpace=wrap;html=1;align=center;" vertex="1" parent="1">
          <mxGeometry x="360" y="49" width="100" height="41" as="geometry" />
        </mxCell>
        <mxCell id="UihXmZ7Ag9q17s1g6zQK-28" value="Salary" style="ellipse;whiteSpace=wrap;html=1;align=center;" vertex="1" parent="1">
          <mxGeometry x="360" width="100" height="40" as="geometry" />
        </mxCell>
        <mxCell id="UihXmZ7Ag9q17s1g6zQK-29" value="Address" style="ellipse;whiteSpace=wrap;html=1;align=center;" vertex="1" parent="1">
          <mxGeometry x="240" width="100" height="40" as="geometry" />
        </mxCell>
        <mxCell id="UihXmZ7Ag9q17s1g6zQK-30" value="Name" style="ellipse;whiteSpace=wrap;html=1;align=center;" vertex="1" parent="1">
          <mxGeometry x="120" width="100" height="40" as="geometry" />
        </mxCell>
        <mxCell id="UihXmZ7Ag9q17s1g6zQK-31" value="Minit" style="ellipse;whiteSpace=wrap;html=1;align=center;" vertex="1" parent="1">
          <mxGeometry x="120" y="-80" width="100" height="40" as="geometry" />
        </mxCell>
        <mxCell id="UihXmZ7Ag9q17s1g6zQK-32" value="Ssn" style="ellipse;whiteSpace=wrap;html=1;align=center;fontStyle=4;" vertex="1" parent="1">
          <mxGeometry y="49" width="100" height="40" as="geometry" />
        </mxCell>
        <mxCell id="UihXmZ7Ag9q17s1g6zQK-33" value="" style="endArrow=none;html=1;rounded=0;exitX=0.25;exitY=0;exitDx=0;exitDy=0;entryX=0.5;entryY=1;entryDx=0;entryDy=0;" edge="1" parent="1" source="UihXmZ7Ag9q17s1g6zQK-21" target="UihXmZ7Ag9q17s1g6zQK-32">
          <mxGeometry width="50" height="50" relative="1" as="geometry">
            <mxPoint x="400" y="190" as="sourcePoint" />
            <mxPoint x="450" y="140" as="targetPoint" />
          </mxGeometry>
        </mxCell>
        <mxCell id="UihXmZ7Ag9q17s1g6zQK-34" value="" style="endArrow=none;html=1;rounded=0;exitX=0.5;exitY=0;exitDx=0;exitDy=0;entryX=0.03;entryY=0.8;entryDx=0;entryDy=0;entryPerimeter=0;" edge="1" parent="1" source="UihXmZ7Ag9q17s1g6zQK-21" target="UihXmZ7Ag9q17s1g6zQK-27">
          <mxGeometry width="50" height="50" relative="1" as="geometry">
            <mxPoint x="400" y="70" as="sourcePoint" />
            <mxPoint x="450" y="20" as="targetPoint" />
          </mxGeometry>
        </mxCell>
        <mxCell id="UihXmZ7Ag9q17s1g6zQK-35" value="" style="endArrow=none;html=1;rounded=0;exitX=0.5;exitY=0;exitDx=0;exitDy=0;entryX=0.02;entryY=0.775;entryDx=0;entryDy=0;entryPerimeter=0;" edge="1" parent="1" source="UihXmZ7Ag9q17s1g6zQK-21" target="UihXmZ7Ag9q17s1g6zQK-28">
          <mxGeometry width="50" height="50" relative="1" as="geometry">
            <mxPoint x="400" y="70" as="sourcePoint" />
            <mxPoint x="450" y="20" as="targetPoint" />
          </mxGeometry>
        </mxCell>
        <mxCell id="UihXmZ7Ag9q17s1g6zQK-36" value="" style="endArrow=none;html=1;rounded=0;exitX=0.44;exitY=-0.025;exitDx=0;exitDy=0;exitPerimeter=0;entryX=0.3;entryY=1.025;entryDx=0;entryDy=0;entryPerimeter=0;" edge="1" parent="1" source="UihXmZ7Ag9q17s1g6zQK-21" target="UihXmZ7Ag9q17s1g6zQK-29">
          <mxGeometry width="50" height="50" relative="1" as="geometry">
            <mxPoint x="400" y="70" as="sourcePoint" />
            <mxPoint x="450" y="20" as="targetPoint" />
          </mxGeometry>
        </mxCell>
        <mxCell id="UihXmZ7Ag9q17s1g6zQK-37" value="" style="endArrow=none;html=1;rounded=0;entryX=0.5;entryY=1;entryDx=0;entryDy=0;" edge="1" parent="1" target="UihXmZ7Ag9q17s1g6zQK-30">
          <mxGeometry width="50" height="50" relative="1" as="geometry">
            <mxPoint x="210" y="110" as="sourcePoint" />
            <mxPoint x="450" y="20" as="targetPoint" />
          </mxGeometry>
        </mxCell>
        <mxCell id="UihXmZ7Ag9q17s1g6zQK-38" value="" style="endArrow=none;html=1;rounded=0;exitX=0.41;exitY=0.075;exitDx=0;exitDy=0;exitPerimeter=0;entryX=0.95;entryY=0.85;entryDx=0;entryDy=0;entryPerimeter=0;" edge="1" parent="1" source="UihXmZ7Ag9q17s1g6zQK-21" target="UihXmZ7Ag9q17s1g6zQK-25">
          <mxGeometry width="50" height="50" relative="1" as="geometry">
            <mxPoint x="400" y="70" as="sourcePoint" />
            <mxPoint x="450" y="20" as="targetPoint" />
          </mxGeometry>
        </mxCell>
        <mxCell id="UihXmZ7Ag9q17s1g6zQK-39" value="" style="endArrow=none;html=1;rounded=0;exitX=1;exitY=0;exitDx=0;exitDy=0;entryX=0;entryY=1;entryDx=0;entryDy=0;" edge="1" parent="1" source="UihXmZ7Ag9q17s1g6zQK-30" target="UihXmZ7Ag9q17s1g6zQK-26">
          <mxGeometry width="50" height="50" relative="1" as="geometry">
            <mxPoint x="400" y="70" as="sourcePoint" />
            <mxPoint x="450" y="20" as="targetPoint" />
          </mxGeometry>
        </mxCell>
        <mxCell id="UihXmZ7Ag9q17s1g6zQK-40" value="" style="endArrow=none;html=1;rounded=0;entryX=0.5;entryY=1;entryDx=0;entryDy=0;exitX=0.5;exitY=0;exitDx=0;exitDy=0;" edge="1" parent="1" source="UihXmZ7Ag9q17s1g6zQK-30" target="UihXmZ7Ag9q17s1g6zQK-31">
          <mxGeometry width="50" height="50" relative="1" as="geometry">
            <mxPoint x="400" y="70" as="sourcePoint" />
            <mxPoint x="450" y="20" as="targetPoint" />
          </mxGeometry>
        </mxCell>
        <mxCell id="UihXmZ7Ag9q17s1g6zQK-41" value="" style="endArrow=none;html=1;rounded=0;exitX=0.22;exitY=0.075;exitDx=0;exitDy=0;exitPerimeter=0;entryX=0.5;entryY=1;entryDx=0;entryDy=0;" edge="1" parent="1" source="UihXmZ7Ag9q17s1g6zQK-30" target="UihXmZ7Ag9q17s1g6zQK-24">
          <mxGeometry width="50" height="50" relative="1" as="geometry">
            <mxPoint x="400" y="70" as="sourcePoint" />
            <mxPoint x="450" y="20" as="targetPoint" />
          </mxGeometry>
        </mxCell>
        <mxCell id="UihXmZ7Ag9q17s1g6zQK-42" value="WORKS_FOR" style="shape=rhombus;perimeter=rhombusPerimeter;whiteSpace=wrap;html=1;align=center;" vertex="1" parent="1">
          <mxGeometry x="500" y="111" width="120" height="60" as="geometry" />
        </mxCell>
        <mxCell id="UihXmZ7Ag9q17s1g6zQK-43" value="" style="shape=link;html=1;rounded=0;exitX=1;exitY=0.75;exitDx=0;exitDy=0;entryX=0;entryY=0.5;entryDx=0;entryDy=0;" edge="1" parent="1" source="UihXmZ7Ag9q17s1g6zQK-21" target="UihXmZ7Ag9q17s1g6zQK-42">
          <mxGeometry relative="1" as="geometry">
            <mxPoint x="340" y="90" as="sourcePoint" />
            <mxPoint x="500" y="90" as="targetPoint" />
          </mxGeometry>
        </mxCell>
        <mxCell id="UihXmZ7Ag9q17s1g6zQK-44" value="N" style="resizable=0;html=1;whiteSpace=wrap;align=right;verticalAlign=bottom;" connectable="0" vertex="1" parent="UihXmZ7Ag9q17s1g6zQK-43">
          <mxGeometry x="1" relative="1" as="geometry" />
        </mxCell>
        <mxCell id="UihXmZ7Ag9q17s1g6zQK-45" value="DEPARTMENT" style="whiteSpace=wrap;html=1;align=center;" vertex="1" parent="1">
          <mxGeometry x="720" y="120" width="100" height="40" as="geometry" />
        </mxCell>
        <mxCell id="UihXmZ7Ag9q17s1g6zQK-46" value="" style="shape=link;html=1;rounded=0;exitX=1;exitY=0.5;exitDx=0;exitDy=0;entryX=0;entryY=0.5;entryDx=0;entryDy=0;" edge="1" parent="1" source="UihXmZ7Ag9q17s1g6zQK-42" target="UihXmZ7Ag9q17s1g6zQK-45">
          <mxGeometry relative="1" as="geometry">
            <mxPoint x="340" y="90" as="sourcePoint" />
            <mxPoint x="500" y="90" as="targetPoint" />
          </mxGeometry>
        </mxCell>
        <mxCell id="UihXmZ7Ag9q17s1g6zQK-47" value="1" style="resizable=0;html=1;whiteSpace=wrap;align=right;verticalAlign=bottom;" connectable="0" vertex="1" parent="UihXmZ7Ag9q17s1g6zQK-46">
          <mxGeometry x="1" relative="1" as="geometry" />
        </mxCell>
        <mxCell id="UihXmZ7Ag9q17s1g6zQK-48" value="NUMBER" style="ellipse;whiteSpace=wrap;html=1;align=center;fontStyle=4;" vertex="1" parent="1">
          <mxGeometry x="760" y="30" width="100" height="40" as="geometry" />
        </mxCell>
        <mxCell id="UihXmZ7Ag9q17s1g6zQK-49" value="NAME" style="ellipse;whiteSpace=wrap;html=1;align=center;fontStyle=4;" vertex="1" parent="1">
          <mxGeometry x="580" y="40" width="100" height="40" as="geometry" />
        </mxCell>
        <mxCell id="UihXmZ7Ag9q17s1g6zQK-50" value="Locations" style="ellipse;shape=doubleEllipse;margin=3;whiteSpace=wrap;html=1;align=center;" vertex="1" parent="1">
          <mxGeometry x="600" y="-30" width="100" height="40" as="geometry" />
        </mxCell>
        <mxCell id="UihXmZ7Ag9q17s1g6zQK-51" value="" style="endArrow=none;html=1;rounded=0;exitX=0.5;exitY=1;exitDx=0;exitDy=0;entryX=0.61;entryY=-0.025;entryDx=0;entryDy=0;entryPerimeter=0;" edge="1" parent="1" source="UihXmZ7Ag9q17s1g6zQK-48" target="UihXmZ7Ag9q17s1g6zQK-45">
          <mxGeometry width="50" height="50" relative="1" as="geometry">
            <mxPoint x="400" y="120" as="sourcePoint" />
            <mxPoint x="450" y="70" as="targetPoint" />
          </mxGeometry>
        </mxCell>
        <mxCell id="UihXmZ7Ag9q17s1g6zQK-52" value="" style="endArrow=none;html=1;rounded=0;entryX=0.13;entryY=0.025;entryDx=0;entryDy=0;exitX=0.57;exitY=0.975;exitDx=0;exitDy=0;exitPerimeter=0;entryPerimeter=0;" edge="1" parent="1" source="UihXmZ7Ag9q17s1g6zQK-50" target="UihXmZ7Ag9q17s1g6zQK-45">
          <mxGeometry width="50" height="50" relative="1" as="geometry">
            <mxPoint x="400" y="120" as="sourcePoint" />
            <mxPoint x="450" y="70" as="targetPoint" />
          </mxGeometry>
        </mxCell>
        <mxCell id="UihXmZ7Ag9q17s1g6zQK-53" value="" style="endArrow=none;html=1;rounded=0;exitX=0;exitY=0;exitDx=0;exitDy=0;entryX=0.64;entryY=1.075;entryDx=0;entryDy=0;entryPerimeter=0;" edge="1" parent="1" source="UihXmZ7Ag9q17s1g6zQK-45" target="UihXmZ7Ag9q17s1g6zQK-49">
          <mxGeometry width="50" height="50" relative="1" as="geometry">
            <mxPoint x="400" y="120" as="sourcePoint" />
            <mxPoint x="450" y="70" as="targetPoint" />
          </mxGeometry>
        </mxCell>
        <mxCell id="UihXmZ7Ag9q17s1g6zQK-54" value="Number_of_employees" style="ellipse;whiteSpace=wrap;html=1;align=center;dashed=1;" vertex="1" parent="1">
          <mxGeometry x="720" y="-30" width="150" height="40" as="geometry" />
        </mxCell>
        <mxCell id="UihXmZ7Ag9q17s1g6zQK-55" value="" style="endArrow=none;html=1;rounded=0;exitX=0.25;exitY=0;exitDx=0;exitDy=0;entryX=0.187;entryY=1.025;entryDx=0;entryDy=0;entryPerimeter=0;" edge="1" parent="1" source="UihXmZ7Ag9q17s1g6zQK-45" target="UihXmZ7Ag9q17s1g6zQK-54">
          <mxGeometry width="50" height="50" relative="1" as="geometry">
            <mxPoint x="400" y="120" as="sourcePoint" />
            <mxPoint x="450" y="70" as="targetPoint" />
          </mxGeometry>
        </mxCell>
        <mxCell id="UihXmZ7Ag9q17s1g6zQK-56" value="MANAGES" style="shape=rhombus;perimeter=rhombusPerimeter;whiteSpace=wrap;html=1;align=center;" vertex="1" parent="1">
          <mxGeometry x="500" y="220" width="120" height="60" as="geometry" />
        </mxCell>
        <mxCell id="UihXmZ7Ag9q17s1g6zQK-57" value="" style="endArrow=none;html=1;rounded=0;exitX=1;exitY=1;exitDx=0;exitDy=0;entryX=0;entryY=0.5;entryDx=0;entryDy=0;" edge="1" parent="1" source="UihXmZ7Ag9q17s1g6zQK-21" target="UihXmZ7Ag9q17s1g6zQK-56">
          <mxGeometry relative="1" as="geometry">
            <mxPoint x="340" y="90" as="sourcePoint" />
            <mxPoint x="500" y="90" as="targetPoint" />
          </mxGeometry>
        </mxCell>
        <mxCell id="UihXmZ7Ag9q17s1g6zQK-58" value="1" style="resizable=0;html=1;whiteSpace=wrap;align=right;verticalAlign=bottom;" connectable="0" vertex="1" parent="UihXmZ7Ag9q17s1g6zQK-57">
          <mxGeometry x="1" relative="1" as="geometry" />
        </mxCell>
        <mxCell id="UihXmZ7Ag9q17s1g6zQK-59" value="" style="shape=link;html=1;rounded=0;entryX=1;entryY=0.5;entryDx=0;entryDy=0;exitX=0;exitY=1;exitDx=0;exitDy=0;" edge="1" parent="1" source="UihXmZ7Ag9q17s1g6zQK-45" target="UihXmZ7Ag9q17s1g6zQK-56">
          <mxGeometry relative="1" as="geometry">
            <mxPoint x="770" y="240" as="sourcePoint" />
            <mxPoint x="500" y="90" as="targetPoint" />
          </mxGeometry>
        </mxCell>
        <mxCell id="UihXmZ7Ag9q17s1g6zQK-60" value="1" style="resizable=0;html=1;whiteSpace=wrap;align=right;verticalAlign=bottom;" connectable="0" vertex="1" parent="UihXmZ7Ag9q17s1g6zQK-59">
          <mxGeometry x="1" relative="1" as="geometry" />
        </mxCell>
        <mxCell id="UihXmZ7Ag9q17s1g6zQK-61" value="Start_date" style="ellipse;whiteSpace=wrap;html=1;align=center;" vertex="1" parent="1">
          <mxGeometry x="410" y="160" width="100" height="40" as="geometry" />
        </mxCell>
        <mxCell id="UihXmZ7Ag9q17s1g6zQK-62" value="" style="endArrow=none;html=1;rounded=0;exitX=0;exitY=0;exitDx=0;exitDy=0;entryX=1;entryY=1;entryDx=0;entryDy=0;" edge="1" parent="1" source="UihXmZ7Ag9q17s1g6zQK-56" target="UihXmZ7Ag9q17s1g6zQK-61">
          <mxGeometry relative="1" as="geometry">
            <mxPoint x="340" y="90" as="sourcePoint" />
            <mxPoint x="500" y="90" as="targetPoint" />
          </mxGeometry>
        </mxCell>
        <mxCell id="UihXmZ7Ag9q17s1g6zQK-63" value="WORKS_ON" style="shape=rhombus;perimeter=rhombusPerimeter;whiteSpace=wrap;html=1;align=center;" vertex="1" parent="1">
          <mxGeometry x="500" y="322" width="120" height="60" as="geometry" />
        </mxCell>
        <mxCell id="UihXmZ7Ag9q17s1g6zQK-64" value="" style="shape=link;html=1;rounded=0;exitX=0.75;exitY=1;exitDx=0;exitDy=0;entryX=0;entryY=0.5;entryDx=0;entryDy=0;" edge="1" parent="1" source="UihXmZ7Ag9q17s1g6zQK-21" target="UihXmZ7Ag9q17s1g6zQK-63">
          <mxGeometry relative="1" as="geometry">
            <mxPoint x="340" y="280" as="sourcePoint" />
            <mxPoint x="500" y="280" as="targetPoint" />
          </mxGeometry>
        </mxCell>
        <mxCell id="UihXmZ7Ag9q17s1g6zQK-65" value="M" style="resizable=0;html=1;whiteSpace=wrap;align=right;verticalAlign=bottom;" connectable="0" vertex="1" parent="UihXmZ7Ag9q17s1g6zQK-64">
          <mxGeometry x="1" relative="1" as="geometry" />
        </mxCell>
        <mxCell id="UihXmZ7Ag9q17s1g6zQK-66" value="Hours" style="ellipse;whiteSpace=wrap;html=1;align=center;" vertex="1" parent="1">
          <mxGeometry x="600" y="282" width="100" height="40" as="geometry" />
        </mxCell>
        <mxCell id="UihXmZ7Ag9q17s1g6zQK-67" value="" style="endArrow=none;html=1;rounded=0;exitX=1;exitY=0;exitDx=0;exitDy=0;entryX=0.38;entryY=0.975;entryDx=0;entryDy=0;entryPerimeter=0;" edge="1" parent="1" source="UihXmZ7Ag9q17s1g6zQK-63" target="UihXmZ7Ag9q17s1g6zQK-66">
          <mxGeometry relative="1" as="geometry">
            <mxPoint x="340" y="280" as="sourcePoint" />
            <mxPoint x="500" y="280" as="targetPoint" />
          </mxGeometry>
        </mxCell>
        <mxCell id="UihXmZ7Ag9q17s1g6zQK-68" value="PROJECT" style="whiteSpace=wrap;html=1;align=center;" vertex="1" parent="1">
          <mxGeometry x="720" y="332" width="100" height="40" as="geometry" />
        </mxCell>
        <mxCell id="UihXmZ7Ag9q17s1g6zQK-69" value="" style="shape=link;html=1;rounded=0;entryX=1;entryY=0.5;entryDx=0;entryDy=0;exitX=0;exitY=0.5;exitDx=0;exitDy=0;" edge="1" parent="1" source="UihXmZ7Ag9q17s1g6zQK-68" target="UihXmZ7Ag9q17s1g6zQK-63">
          <mxGeometry relative="1" as="geometry">
            <mxPoint x="340" y="280" as="sourcePoint" />
            <mxPoint x="500" y="280" as="targetPoint" />
          </mxGeometry>
        </mxCell>
        <mxCell id="UihXmZ7Ag9q17s1g6zQK-70" value="N" style="resizable=0;html=1;whiteSpace=wrap;align=right;verticalAlign=bottom;" connectable="0" vertex="1" parent="UihXmZ7Ag9q17s1g6zQK-69">
          <mxGeometry x="1" relative="1" as="geometry" />
        </mxCell>
        <mxCell id="UihXmZ7Ag9q17s1g6zQK-71" value="CONTROLS" style="shape=rhombus;perimeter=rhombusPerimeter;whiteSpace=wrap;html=1;align=center;" vertex="1" parent="1">
          <mxGeometry x="710" y="220" width="120" height="60" as="geometry" />
        </mxCell>
        <mxCell id="UihXmZ7Ag9q17s1g6zQK-72" value="" style="endArrow=none;html=1;rounded=0;entryX=0.5;entryY=0;entryDx=0;entryDy=0;exitX=0.5;exitY=1;exitDx=0;exitDy=0;" edge="1" parent="1" source="UihXmZ7Ag9q17s1g6zQK-45" target="UihXmZ7Ag9q17s1g6zQK-71">
          <mxGeometry relative="1" as="geometry">
            <mxPoint x="340" y="280" as="sourcePoint" />
            <mxPoint x="500" y="280" as="targetPoint" />
          </mxGeometry>
        </mxCell>
        <mxCell id="UihXmZ7Ag9q17s1g6zQK-73" value="1" style="resizable=0;html=1;whiteSpace=wrap;align=right;verticalAlign=bottom;" connectable="0" vertex="1" parent="UihXmZ7Ag9q17s1g6zQK-72">
          <mxGeometry x="1" relative="1" as="geometry" />
        </mxCell>
        <mxCell id="UihXmZ7Ag9q17s1g6zQK-74" value="" style="shape=link;html=1;rounded=0;entryX=0.5;entryY=1;entryDx=0;entryDy=0;exitX=0.5;exitY=0;exitDx=0;exitDy=0;" edge="1" parent="1" source="UihXmZ7Ag9q17s1g6zQK-68" target="UihXmZ7Ag9q17s1g6zQK-71">
          <mxGeometry relative="1" as="geometry">
            <mxPoint x="790" y="300" as="sourcePoint" />
            <mxPoint x="770" y="330" as="targetPoint" />
          </mxGeometry>
        </mxCell>
        <mxCell id="UihXmZ7Ag9q17s1g6zQK-75" value="N" style="resizable=0;html=1;whiteSpace=wrap;align=right;verticalAlign=bottom;" connectable="0" vertex="1" parent="UihXmZ7Ag9q17s1g6zQK-74">
          <mxGeometry x="1" relative="1" as="geometry">
            <mxPoint x="-2" y="20" as="offset" />
          </mxGeometry>
        </mxCell>
        <mxCell id="UihXmZ7Ag9q17s1g6zQK-77" value="NAME" style="ellipse;whiteSpace=wrap;html=1;align=center;fontStyle=4;" vertex="1" parent="1">
          <mxGeometry x="656" y="460" width="100" height="40" as="geometry" />
        </mxCell>
        <mxCell id="UihXmZ7Ag9q17s1g6zQK-78" value="NUMBER" style="ellipse;whiteSpace=wrap;html=1;align=center;fontStyle=4;" vertex="1" parent="1">
          <mxGeometry x="620" y="400" width="100" height="40" as="geometry" />
        </mxCell>
        <mxCell id="UihXmZ7Ag9q17s1g6zQK-79" value="Location" style="ellipse;whiteSpace=wrap;html=1;align=center;" vertex="1" parent="1">
          <mxGeometry x="745" y="430" width="100" height="40" as="geometry" />
        </mxCell>
        <mxCell id="UihXmZ7Ag9q17s1g6zQK-80" value="" style="endArrow=none;html=1;rounded=0;entryX=0.75;entryY=1;entryDx=0;entryDy=0;exitX=0.5;exitY=0;exitDx=0;exitDy=0;" edge="1" parent="1" source="UihXmZ7Ag9q17s1g6zQK-79" target="UihXmZ7Ag9q17s1g6zQK-68">
          <mxGeometry relative="1" as="geometry">
            <mxPoint x="340" y="430" as="sourcePoint" />
            <mxPoint x="500" y="430" as="targetPoint" />
          </mxGeometry>
        </mxCell>
        <mxCell id="UihXmZ7Ag9q17s1g6zQK-81" value="" style="endArrow=none;html=1;rounded=0;exitX=0.37;exitY=1.05;exitDx=0;exitDy=0;exitPerimeter=0;entryX=0.74;entryY=0.05;entryDx=0;entryDy=0;entryPerimeter=0;" edge="1" parent="1" source="UihXmZ7Ag9q17s1g6zQK-68" target="UihXmZ7Ag9q17s1g6zQK-77">
          <mxGeometry relative="1" as="geometry">
            <mxPoint x="340" y="430" as="sourcePoint" />
            <mxPoint x="500" y="430" as="targetPoint" />
          </mxGeometry>
        </mxCell>
        <mxCell id="UihXmZ7Ag9q17s1g6zQK-82" value="" style="endArrow=none;html=1;rounded=0;entryX=0;entryY=1;entryDx=0;entryDy=0;exitX=0.75;exitY=0.075;exitDx=0;exitDy=0;exitPerimeter=0;" edge="1" parent="1" source="UihXmZ7Ag9q17s1g6zQK-78" target="UihXmZ7Ag9q17s1g6zQK-68">
          <mxGeometry relative="1" as="geometry">
            <mxPoint x="340" y="430" as="sourcePoint" />
            <mxPoint x="500" y="430" as="targetPoint" />
          </mxGeometry>
        </mxCell>
        <mxCell id="UihXmZ7Ag9q17s1g6zQK-83" value="DEPENDENTS_OF" style="shape=rhombus;double=1;perimeter=rhombusPerimeter;whiteSpace=wrap;html=1;align=center;" vertex="1" parent="1">
          <mxGeometry x="475" y="435" width="170" height="90" as="geometry" />
        </mxCell>
        <mxCell id="UihXmZ7Ag9q17s1g6zQK-85" value="" style="endArrow=none;html=1;rounded=0;entryX=0.206;entryY=0.278;entryDx=0;entryDy=0;exitX=0.44;exitY=1;exitDx=0;exitDy=0;exitPerimeter=0;entryPerimeter=0;" edge="1" parent="1" source="UihXmZ7Ag9q17s1g6zQK-21" target="UihXmZ7Ag9q17s1g6zQK-83">
          <mxGeometry relative="1" as="geometry">
            <mxPoint x="340" y="430" as="sourcePoint" />
            <mxPoint x="500" y="430" as="targetPoint" />
          </mxGeometry>
        </mxCell>
        <mxCell id="UihXmZ7Ag9q17s1g6zQK-86" value="1" style="resizable=0;html=1;whiteSpace=wrap;align=right;verticalAlign=bottom;" connectable="0" vertex="1" parent="UihXmZ7Ag9q17s1g6zQK-85">
          <mxGeometry x="1" relative="1" as="geometry" />
        </mxCell>
        <mxCell id="UihXmZ7Ag9q17s1g6zQK-88" value="SUPERVISION" style="shape=rhombus;perimeter=rhombusPerimeter;whiteSpace=wrap;html=1;align=center;" vertex="1" parent="1">
          <mxGeometry x="160" y="435" width="120" height="60" as="geometry" />
        </mxCell>
        <mxCell id="UihXmZ7Ag9q17s1g6zQK-89" value="" style="endArrow=none;html=1;rounded=0;entryX=0.992;entryY=0.4;entryDx=0;entryDy=0;entryPerimeter=0;exitX=0.32;exitY=1.075;exitDx=0;exitDy=0;exitPerimeter=0;" edge="1" parent="1" source="UihXmZ7Ag9q17s1g6zQK-21" target="UihXmZ7Ag9q17s1g6zQK-88">
          <mxGeometry relative="1" as="geometry">
            <mxPoint x="340" y="320" as="sourcePoint" />
            <mxPoint x="500" y="320" as="targetPoint" />
          </mxGeometry>
        </mxCell>
        <mxCell id="UihXmZ7Ag9q17s1g6zQK-90" value="N" style="resizable=0;html=1;whiteSpace=wrap;align=right;verticalAlign=bottom;" connectable="0" vertex="1" parent="UihXmZ7Ag9q17s1g6zQK-89">
          <mxGeometry x="1" relative="1" as="geometry" />
        </mxCell>
        <mxCell id="UihXmZ7Ag9q17s1g6zQK-91" value="Supervisee" style="edgeLabel;html=1;align=center;verticalAlign=middle;resizable=0;points=[];" vertex="1" connectable="0" parent="UihXmZ7Ag9q17s1g6zQK-89">
          <mxGeometry x="0.5111" y="-3" relative="1" as="geometry">
            <mxPoint x="53" y="45" as="offset" />
          </mxGeometry>
        </mxCell>
        <mxCell id="UihXmZ7Ag9q17s1g6zQK-92" value="" style="endArrow=none;html=1;rounded=0;entryX=0;entryY=0.5;entryDx=0;entryDy=0;exitX=0.15;exitY=1.075;exitDx=0;exitDy=0;exitPerimeter=0;" edge="1" parent="1" source="UihXmZ7Ag9q17s1g6zQK-21" target="UihXmZ7Ag9q17s1g6zQK-88">
          <mxGeometry relative="1" as="geometry">
            <mxPoint x="340" y="320" as="sourcePoint" />
            <mxPoint x="500" y="320" as="targetPoint" />
          </mxGeometry>
        </mxCell>
        <mxCell id="UihXmZ7Ag9q17s1g6zQK-93" value="1" style="resizable=0;html=1;whiteSpace=wrap;align=right;verticalAlign=bottom;" connectable="0" vertex="1" parent="UihXmZ7Ag9q17s1g6zQK-92">
          <mxGeometry x="1" relative="1" as="geometry" />
        </mxCell>
        <mxCell id="UihXmZ7Ag9q17s1g6zQK-94" value="Supervisor" style="edgeLabel;html=1;align=center;verticalAlign=middle;resizable=0;points=[];" vertex="1" connectable="0" parent="UihXmZ7Ag9q17s1g6zQK-92">
          <mxGeometry x="0.7633" y="-1" relative="1" as="geometry">
            <mxPoint x="-32" as="offset" />
          </mxGeometry>
        </mxCell>
        <mxCell id="UihXmZ7Ag9q17s1g6zQK-95" value="DEPENDENT" style="shape=ext;margin=3;double=1;whiteSpace=wrap;html=1;align=center;" vertex="1" parent="1">
          <mxGeometry x="510" y="600" width="100" height="40" as="geometry" />
        </mxCell>
        <mxCell id="UihXmZ7Ag9q17s1g6zQK-96" value="" style="shape=link;html=1;rounded=0;entryX=0.5;entryY=1;entryDx=0;entryDy=0;exitX=0.5;exitY=0;exitDx=0;exitDy=0;" edge="1" parent="1" source="UihXmZ7Ag9q17s1g6zQK-95" target="UihXmZ7Ag9q17s1g6zQK-83">
          <mxGeometry relative="1" as="geometry">
            <mxPoint x="340" y="520" as="sourcePoint" />
            <mxPoint x="500" y="520" as="targetPoint" />
          </mxGeometry>
        </mxCell>
        <mxCell id="UihXmZ7Ag9q17s1g6zQK-97" value="N" style="resizable=0;html=1;whiteSpace=wrap;align=right;verticalAlign=bottom;" connectable="0" vertex="1" parent="UihXmZ7Ag9q17s1g6zQK-96">
          <mxGeometry x="1" relative="1" as="geometry">
            <mxPoint x="-6" y="13" as="offset" />
          </mxGeometry>
        </mxCell>
        <mxCell id="UihXmZ7Ag9q17s1g6zQK-98" value="&lt;span style=&quot;border-bottom: 1px dotted&quot;&gt;Name&lt;/span&gt;" style="ellipse;whiteSpace=wrap;html=1;align=center;" vertex="1" parent="1">
          <mxGeometry x="320" y="680" width="100" height="40" as="geometry" />
        </mxCell>
        <mxCell id="UihXmZ7Ag9q17s1g6zQK-99" value="Birth_date" style="ellipse;whiteSpace=wrap;html=1;align=center;" vertex="1" parent="1">
          <mxGeometry x="556" y="680" width="100" height="40" as="geometry" />
        </mxCell>
        <mxCell id="UihXmZ7Ag9q17s1g6zQK-100" value="Sex" style="ellipse;whiteSpace=wrap;html=1;align=center;" vertex="1" parent="1">
          <mxGeometry x="440" y="680" width="100" height="40" as="geometry" />
        </mxCell>
        <mxCell id="UihXmZ7Ag9q17s1g6zQK-101" value="Relationship" style="ellipse;whiteSpace=wrap;html=1;align=center;" vertex="1" parent="1">
          <mxGeometry x="680" y="680" width="100" height="40" as="geometry" />
        </mxCell>
        <mxCell id="UihXmZ7Ag9q17s1g6zQK-102" value="" style="endArrow=none;html=1;rounded=0;entryX=1;entryY=1;entryDx=0;entryDy=0;exitX=0.27;exitY=0.125;exitDx=0;exitDy=0;exitPerimeter=0;" edge="1" parent="1" source="UihXmZ7Ag9q17s1g6zQK-101" target="UihXmZ7Ag9q17s1g6zQK-95">
          <mxGeometry relative="1" as="geometry">
            <mxPoint x="350" y="520" as="sourcePoint" />
            <mxPoint x="510" y="520" as="targetPoint" />
          </mxGeometry>
        </mxCell>
        <mxCell id="UihXmZ7Ag9q17s1g6zQK-103" value="" style="endArrow=none;html=1;rounded=0;entryX=0.75;entryY=1;entryDx=0;entryDy=0;exitX=0.5;exitY=0;exitDx=0;exitDy=0;" edge="1" parent="1" source="UihXmZ7Ag9q17s1g6zQK-99" target="UihXmZ7Ag9q17s1g6zQK-95">
          <mxGeometry relative="1" as="geometry">
            <mxPoint x="350" y="520" as="sourcePoint" />
            <mxPoint x="510" y="520" as="targetPoint" />
          </mxGeometry>
        </mxCell>
        <mxCell id="UihXmZ7Ag9q17s1g6zQK-104" value="" style="endArrow=none;html=1;rounded=0;entryX=0.25;entryY=1;entryDx=0;entryDy=0;exitX=0.5;exitY=0;exitDx=0;exitDy=0;" edge="1" parent="1" source="UihXmZ7Ag9q17s1g6zQK-100" target="UihXmZ7Ag9q17s1g6zQK-95">
          <mxGeometry relative="1" as="geometry">
            <mxPoint x="350" y="520" as="sourcePoint" />
            <mxPoint x="510" y="520" as="targetPoint" />
          </mxGeometry>
        </mxCell>
        <mxCell id="UihXmZ7Ag9q17s1g6zQK-105" value="" style="endArrow=none;html=1;rounded=0;exitX=0;exitY=1;exitDx=0;exitDy=0;entryX=0.43;entryY=0;entryDx=0;entryDy=0;entryPerimeter=0;" edge="1" parent="1" source="UihXmZ7Ag9q17s1g6zQK-95" target="UihXmZ7Ag9q17s1g6zQK-98">
          <mxGeometry relative="1" as="geometry">
            <mxPoint x="350" y="520" as="sourcePoint" />
            <mxPoint x="510" y="520" as="targetPoint" />
          </mxGeometry>
        </mxCell>
      </root>
    </mxGraphModel>
  </diagram>
</mxfile>
